<svg version="1.1" xmlns="http://www.w3.org/2000/svg" xmlns:xlink="http://www.w3.org/1999/xlink" viewBox="0 0 226 226"><g fill="none" fill-rule="nonzero" stroke="none" stroke-width="1" stroke-linecap="butt" stroke-linejoin="miter" stroke-miterlimit="10" stroke-dasharray="" stroke-dashoffset="0" font-family="none" font-weight="none" font-size="none" text-anchor="none" style="mix-blend-mode: normal"><path d="M0,226v-226h226v226z" fill="none"></path><g fill="#ecf0f1"><path d="M26.07692,86.92308c-14.39663,0 -26.07692,11.68029 -26.07692,26.07692c0,14.39663 11.68029,26.07692 26.07692,26.07692c14.39663,0 26.07692,-11.68029 26.07692,-26.07692c0,-14.39663 -11.68029,-26.07692 -26.07692,-26.07692zM113,86.92308c-14.39663,0 -26.07692,11.68029 -26.07692,26.07692c0,14.39663 11.68029,26.07692 26.07692,26.07692c14.39663,0 26.07692,-11.68029 26.07692,-26.07692c0,-14.39663 -11.68029,-26.07692 -26.07692,-26.07692zM199.92308,86.92308c-14.39663,0 -26.07692,11.68029 -26.07692,26.07692c0,14.39663 11.68029,26.07692 26.07692,26.07692c14.39663,0 26.07692,-11.68029 26.07692,-26.07692c0,-14.39663 -11.68029,-26.07692 -26.07692,-26.07692z"></path></g></g></svg>